<?xml version="1.0" encoding="utf-8"?>
<!-- Generator: Adobe Illustrator 16.0.0, SVG Export Plug-In . SVG Version: 6.00 Build 0)  -->
<!DOCTYPE svg PUBLIC "-//W3C//DTD SVG 1.1//EN" "http://www.w3.org/Graphics/SVG/1.1/DTD/svg11.dtd">
<svg version="1.1" id="Layer_1" xmlns="http://www.w3.org/2000/svg" xmlns:xlink="http://www.w3.org/1999/xlink" x="0px" y="0px"
	 width="800px" height="600px" viewBox="0 0 800 600" enable-background="new 0 0 800 600" xml:space="preserve">
<g transform="translate(100,100)">
	<g>
		<path fill="#E87B95" d="M21-91c52.467,0,95,42.533,95,95S73.467,99,21,99c-52.467,0-95-42.533-95-95
			c0-9.369,1.386-18.686,4.112-27.648L21,4V-91z"/>
	</g>
	<g>
		<path fill="#7E82E0" d="M-69.888-23.648c11.404-37.489,44.657-64.13,83.731-67.082L21,4L-69.888-23.648z"/>
	</g>
	<g>
		<path fill="#C7F071" d="M13.844-90.73C16.225-90.91,18.612-91,21-91V4L13.844-90.73z"/>
	</g>
	<text transform="matrix(1 0 0 1 -12.0186 109)" font-family="'ArialMT'" font-size="11">United States</text>
</g>
<g transform="translate(300,100)">
	<g>
		<path fill="#E87B95" d="M21-69.336c40.503,0,73.336,32.834,73.336,73.336c0.001,37.476-28.255,68.923-65.518,72.918L21,4V-69.336z
			"/>
	</g>
	<g>
		<path fill="#7E82E0" d="M28.818,76.918c-40.271,4.318-76.419-24.828-80.737-65.1c-2.958-27.585,9.904-54.478,33.234-69.49L21,4
			L28.818,76.918z"/>
	</g>
	<g>
		<path fill="#C7F071" d="M-18.684-57.672C-6.849-65.287,6.927-69.336,21-69.336V4L-18.684-57.672z"/>
	</g>
	<text transform="matrix(1 0 0 1 6.6299 87.3359)" font-family="'ArialMT'" font-size="11">China</text>
</g>
<g transform="translate(500,100)">
	<g>
		<path fill="#E87B95" d="M21-44.93c27.023,0,48.931,21.907,48.931,48.93S48.023,52.93,21,52.93
			c-22.714,0-42.441-15.631-47.635-37.743L21,4V-44.93z"/>
	</g>
	<g>
		<path fill="#7E82E0" d="M-26.635,15.188c-6.178-26.308,10.14-52.643,36.447-58.822c2.468-0.58,4.978-0.967,7.506-1.157L21,4
			L-26.635,15.188z"/>
	</g>
	<g>
		<path fill="#C7F071" d="M17.318-44.792c1.225-0.093,2.453-0.139,3.682-0.139V4L17.318-44.792z"/>
	</g>
	<text transform="matrix(1 0 0 1 6.0146 62.9307)" font-family="'ArialMT'" font-size="11">Japan</text>
</g>
<g transform="translate(700,100)">
	<g>
		<path fill="#E87B95" d="M21-40.718c24.697,0,44.718,20.021,44.718,44.718S45.697,48.718,21,48.718
			c-20.519,0-38.404-13.964-43.382-33.869L21,4V-40.718z"/>
	</g>
	<g>
		<path fill="#7E82E0" d="M-22.382,14.849c-5.991-23.959,8.574-48.239,32.533-54.23c2.819-0.705,5.7-1.134,8.602-1.279L21,4
			L-22.382,14.849z"/>
	</g>
	<g>
		<path fill="#C7F071" d="M18.753-40.661c0.749-0.038,1.498-0.057,2.247-0.057V4L18.753-40.661z"/>
	</g>
	<text transform="matrix(1 0 0 1 -1.6172 58.7178)" font-family="'ArialMT'" font-size="11">Germany</text>
</g>
<g transform="translate(100,300)">
	<g>
		<path fill="#E87B95" d="M21-35.063c21.574,0,39.063,17.489,39.063,39.063c0,21.574-17.489,39.062-39.063,39.062
			S-18.063,25.574-18.063,4c0-2.702,0.28-5.397,0.836-8.042L21,4V-35.063z"/>
	</g>
	<g>
		<path fill="#7E82E0" d="M-17.227-4.042c3.671-17.451,18.694-30.2,36.509-30.984L21,4L-17.227-4.042z"/>
	</g>
	<g>
		<path fill="#C7F071" d="M19.282-35.025c0.572-0.025,1.145-0.038,1.718-0.038V4L19.282-35.025z"/>
	</g>
	<text transform="matrix(1 0 0 1 -18.1338 53.0635)" font-family="'ArialMT'" font-size="11">United Kingdom</text>
</g>
<g transform="translate(300,300)">
	<g>
		<path fill="#E87B95" d="M21-34.406c21.211,0,38.406,17.195,38.406,38.406S42.211,42.406,21,42.406S-17.406,25.211-17.406,4
			c0-3.868,0.584-7.714,1.733-11.408L21,4V-34.406z"/>
	</g>
	<g>
		<path fill="#7E82E0" d="M-15.672-7.408c4.497-14.456,17.067-24.921,32.098-26.725L21,4L-15.672-7.408z"/>
	</g>
	<g>
		<path fill="#C7F071" d="M16.426-34.133c1.518-0.182,3.045-0.273,4.574-0.273V4L16.426-34.133z"/>
	</g>
	<text transform="matrix(1 0 0 1 3.8823 52.4062)" font-family="'ArialMT'" font-size="11">France</text>
</g>
<g transform="translate(500,300)">
	<g>
		<path fill="#E87B95" d="M21-30.916c19.283,0,34.916,15.632,34.916,34.916c0,19.283-15.633,34.916-34.916,34.916
			c-12.894,0-24.737-7.105-30.807-18.48L21,4V-30.916z"/>
	</g>
	<g>
		<path fill="#7E82E0" d="M-9.807,20.436c-9.076-17.014-2.643-38.165,14.371-47.242c1.55-0.827,3.159-1.535,4.814-2.12L21,4
			L-9.807,20.436z"/>
	</g>
	<g>
		<path fill="#C7F071" d="M9.379-28.926c3.733-1.317,7.663-1.99,11.621-1.99V4L9.379-28.926z"/>
	</g>
	<text transform="matrix(1 0 0 1 7.2471 48.916)" font-family="'ArialMT'" font-size="11">Brazil</text>
</g>
<g transform="translate(700,300)">
	<g>
		<path fill="#E87B95" d="M21-29.36c18.424,0,33.36,14.936,33.36,33.36c0,18.424-14.937,33.359-33.36,33.359
			c-17.449,0-31.951-13.447-33.266-30.847L21,4V-29.36z"/>
	</g>
	<g>
		<path fill="#7E82E0" d="M-12.266,6.513c-1.338-17.722,11.452-33.382,29.085-35.609L21,4L-12.266,6.513z"/>
	</g>
	<g>
		<path fill="#C7F071" d="M16.819-29.097c1.387-0.175,2.783-0.263,4.181-0.263V4L16.819-29.097z"/>
	</g>
	<text transform="matrix(1 0 0 1 10.9131 47.3604)" font-family="'ArialMT'" font-size="11">Italy</text>
</g>
<g transform="translate(100,500)">
	<g>
		<path fill="#E87B95" d="M21-28.589c17.999,0,32.589,14.59,32.589,32.589S38.999,36.589,21,36.589
			c-4.689,0-9.322-1.012-13.584-2.966L21,4V-28.589z"/>
	</g>
	<g>
		<path fill="#7E82E0" d="M7.416,33.623C-8.945,26.12-16.125,6.775-8.623-9.585c0.22-0.479,0.452-0.955,0.696-1.424L21,4
			L7.416,33.623z"/>
	</g>
	<g>
		<path fill="#C7F071" d="M-7.927-11.009C-2.323-21.811,8.832-28.589,21-28.589V4L-7.927-11.009z"/>
	</g>
	<text transform="matrix(1 0 0 1 9.0732 46.5889)" font-family="'ArialMT'" font-size="11">India</text>
</g>
<g transform="translate(300,500)">
	<g>
		<path fill="#E87B95" d="M21-27.022c17.133,0,31.022,13.89,31.022,31.022S38.133,35.022,21,35.022
			c-6.618,0-13.062-2.116-18.392-6.04L21,4V-27.022z"/>
	</g>
	<g>
		<path fill="#7E82E0" d="M2.608,28.982C-11.189,18.825-14.14-0.595-3.982-14.392c4.28-5.813,10.453-9.952,17.457-11.704L21,4
			L2.608,28.982z"/>
	</g>
	<g>
		<path fill="#C7F071" d="M13.474-26.096c2.461-0.615,4.989-0.927,7.526-0.927V4L13.474-26.096z"/>
	</g>
	<text transform="matrix(1 0 0 1 4.1885 45.0225)" font-family="'ArialMT'" font-size="11">Russia</text>
</g>
<g transform="translate(500,500)">
	<g>
		<path fill="#E87B95" d="M21-26.442c16.813,0,30.442,13.629,30.442,30.442S37.813,34.442,21,34.442
			c-12.907,0-24.411-8.139-28.707-20.311L21,4V-26.442z"/>
	</g>
	<g>
		<path fill="#7E82E0" d="M-7.707,14.132c-5.596-15.854,2.721-33.243,18.575-38.839c2.167-0.765,4.413-1.282,6.696-1.541L21,4
			L-7.707,14.132z"/>
	</g>
	<g>
		<path fill="#C7F071" d="M17.564-26.248c1.141-0.13,2.287-0.194,3.436-0.194V4L17.564-26.248z"/>
	</g>
	<text transform="matrix(1 0 0 1 1.7344 44.4424)" font-family="'ArialMT'" font-size="11">Canada</text>
</g>
<g transform="translate(700,500)">
	<g>
		<path fill="#E87B95" d="M21-23.354c15.107,0,27.354,12.247,27.354,27.354S36.107,31.354,21,31.354
			c-11.472,0-21.725-7.158-25.679-17.927L21,4V-23.354z"/>
	</g>
	<g>
		<path fill="#7E82E0" d="M-4.679,13.428C-9.885-0.754-2.609-16.472,11.572-21.679c0.861-0.315,1.737-0.588,2.625-0.816L21,4
			L-4.679,13.428z"/>
	</g>
	<g>
		<path fill="#C7F071" d="M14.197-22.495c2.223-0.57,4.508-0.859,6.803-0.859V4L14.197-22.495z"/>
	</g>
	<text transform="matrix(1 0 0 1 -0.3984 41.3545)" font-family="'ArialMT'" font-size="11">Australia</text>
</g>
<rect x="82.773" y="572.5" fill="#7E82E0" width="15.247" height="15.763"/>
<rect x="110.164" y="574.763" fill="none" width="54.714" height="13.5"/>
<text transform="matrix(1 0 0 1 110.1636 583.2822)" font-family="'MyriadPro-Regular'" font-size="12">industria</text>
<rect x="307.774" y="572.5" fill="#C7F071" width="15.246" height="15.763"/>
<rect x="335.164" y="574.763" fill="none" width="74.713" height="13.5"/>
<text transform="matrix(1 0 0 1 335.1636 583.2822)" font-family="'MyriadPro-Regular'" font-size="12">Agricultura</text>
<rect x="513.293" y="572.5" fill="#E87B95" width="15.246" height="15.763"/>
<rect x="540.683" y="574.763" fill="none" width="74.714" height="13.5"/>
<text transform="matrix(1 0 0 1 540.6826 583.2822)" font-family="'MyriadPro-Regular'" font-size="12">Servicios</text>
</svg>
