<?xml version="1.0" encoding="utf-8"?>
<!-- Generator: Adobe Illustrator 16.0.0, SVG Export Plug-In . SVG Version: 6.00 Build 0)  -->
<!DOCTYPE svg PUBLIC "-//W3C//DTD SVG 1.1//EN" "http://www.w3.org/Graphics/SVG/1.1/DTD/svg11.dtd">
<svg version="1.1" id="Layer_1" xmlns="http://www.w3.org/2000/svg" xmlns:xlink="http://www.w3.org/1999/xlink" x="0px" y="0px"
	 width="847px" height="500px" viewBox="0 0 847 500" enable-background="new 0 0 847 500" xml:space="preserve">
<rect x="602.5" y="10.5" fill="#DBAD65" stroke="#FFFFFF" width="109" height="127.706"/>
<title>Egypt: 15,388,000</title>
<text transform="matrix(1.0884 0 0 1 642.9355 77.8901)" font-family="'ArialMT'" font-size="10.1062">Egypt</text>
<rect x="711.5" y="10.5" fill="#DBAD65" stroke="#FFFFFF" width="126" height="127.706"/>
<title>Nigeria: 17,578,000</title>
<text transform="matrix(1.0884 0 0 1 757.0762 77.8901)" font-family="'ArialMT'" font-size="10.1062">Nigeria</text>
<rect x="495.5" y="10.5" fill="#DBAD65" stroke="#FFFFFF" width="107" height="54.206"/>
<title>Somalia: 6,346,000</title>
<text transform="matrix(1.0884 0 0 1 529.1299 41.1401)" font-family="'ArialMT'" font-size="10.1062">Somalia</text>
<rect x="424.5" y="71.137" fill="#DBAD65" stroke="#FFFFFF" width="71" height="67.069"/>
<title>Sudan: 5,172,000</title>
<text transform="matrix(1.0884 0 0 1 444.0957 108.2085)" font-family="'ArialMT'" font-size="10.1062">Sudan</text>
<rect x="424.5" y="10.5" fill="#DBAD65" stroke="#FFFFFF" width="71" height="60.637"/>
<title>Angola: 4,772,000</title>
<text transform="matrix(1.0884 0 0 1 442.874 44.3555)" font-family="'ArialMT'" font-size="10.1062">Angola</text>
<rect x="338.5" y="92.269" fill="#DBAD65" stroke="#FFFFFF" width="86" height="45.938"/>
<title>Tanzania: 4,364,541</title>
<text transform="matrix(1.0884 0 0 1 359.4839 118.7744)" font-family="'ArialMT'" font-size="10.1062">Tanzania</text>
<rect x="338.5" y="49.087" fill="#DBAD65" stroke="#FFFFFF" width="86" height="43.181"/>
<title>Ivory Coast: 4,125,000</title>
<text transform="matrix(1.0884 0 0 1 353.6855 74.2148)" font-family="'ArialMT'" font-size="10.1062">Ivory Coast</text>
<rect x="338.5" y="10.5" fill="#DBAD65" stroke="#FFFFFF" width="86" height="38.587"/>
<title>South Africa: 3,670,000</title>
<text transform="matrix(1.0884 0 0 1 351.8438 33.3306)" font-family="'ArialMT'" font-size="10.1062">South Africa</text>
<rect x="495.5" y="64.706" fill="#DBAD65" stroke="#FFFFFF" width="107" height="73.5"/>
<title>Democratic Republic of the Congo: 8,754,000</title>
<text transform="matrix(1.0884 0 0 1 528.2354 104.9932)" font-family="'ArialMT'" font-size="10.1062">Congo</text>
<rect x="484.5" y="225.488" fill="#CC6666" stroke="#FFFFFF" width="353" height="226.012"/>
<title>China: 84,520,700</title>
<text transform="matrix(1.0884 0 0 1 646.6299 342.0312)" font-family="'ArialMT'" font-size="10.1062">China</text>
<rect x="338.5" y="212.625" fill="#CC6666" stroke="#FFFFFF" width="146" height="87.281"/>
<title>Japan: 13,513,734</title>
<text transform="matrix(1.0884 0 0 1 396.5146 259.8027)" font-family="'ArialMT'" font-size="10.1062">Japan</text>
<rect x="484.5" y="147.394" fill="#CC6666" stroke="#FFFFFF" width="353" height="78.094"/>
<title>India: 29,230,314</title>
<text transform="matrix(1.0884 0 0 1 649.0732 189.9775)" font-family="'ArialMT'" font-size="10.1062">India</text>
<rect x="338.5" y="147.394" fill="#CC6666" stroke="#FFFFFF" width="146" height="65.231"/>
<title>Indonesia: 10,075,310</title>
<text transform="matrix(1.0884 0 0 1 387.647 183.5459)" font-family="'ArialMT'" font-size="10.1062">Indonesia</text>
<rect x="338.5" y="299.906" fill="#CC6666" stroke="#FFFFFF" width="146" height="151.594"/>
<title>Pakistan: 23,500,000</title>
<text transform="matrix(1.0884 0 0 1 390.4053 379.2402)" font-family="'ArialMT'" font-size="10.1062">Pakistan</text>
<rect x="152.5" y="288.882" fill="#9F6AB7" stroke="#FFFFFF" width="78" height="162.618"/>
<title>Turkey: 14,025,646</title>
<text transform="matrix(1.0884 0 0 1 174.8955 373.7275)" font-family="'ArialMT'" font-size="10.1062">Turkey</text>
<rect x="230.5" y="288.882" fill="#9F6AB7" stroke="#FFFFFF" width="98" height="162.618"/>
<title>Russia: 17,555,816</title>
<text transform="matrix(1.0884 0 0 1 262.6885 373.7275)" font-family="'ArialMT'" font-size="10.1062">Russia</text>
<rect x="66.5" y="359.625" fill="#9F6AB7" stroke="#FFFFFF" width="86" height="91.875"/>
<title>United Kingdom: 8,673,713</title>
<text transform="matrix(1.0884 0 0 1 70.3662 409.0996)" font-family="'ArialMT'" font-size="10.1062">United Kingdom</text>
<rect x="66.5" y="321.956" fill="#9F6AB7" stroke="#FFFFFF" width="86" height="37.669"/>
<title>Germany: 3,562,166</title>
<text transform="matrix(1.0884 0 0 1 86.8823 344.3281)" font-family="'ArialMT'" font-size="10.1062">Germany</text>
<rect x="66.5" y="288.882" fill="#9F6AB7" stroke="#FFFFFF" width="86" height="33.074"/>
<title>Spain: 3,165,235</title>
<text transform="matrix(1.0884 0 0 1 95.4331 308.9551)" font-family="'ArialMT'" font-size="10.1062">Spain</text>
<rect x="10.5" y="403.725" fill="#9F6AB7" stroke="#FFFFFF" width="56" height="47.775"/>
<title>Ukraine: 2,909,491</title>
<text transform="matrix(1.0884 0 0 1 19.5479 431.1494)" font-family="'ArialMT'" font-size="10.1062">Ukraine</text>
<rect x="10.5" y="356.869" fill="#9F6AB7" stroke="#FFFFFF" width="56" height="46.855"/>
<title>Italy: 2,874,038</title>
<text transform="matrix(1.0884 0 0 1 28.4131 383.834)" font-family="'ArialMT'" font-size="10.1062">Italy</text>
<rect x="10.5" y="320.119" fill="#9F6AB7" stroke="#FFFFFF" width="56" height="36.75"/>
<title>France: 2,241,346</title>
<text transform="matrix(1.0884 0 0 1 21.3823 342.0312)" font-family="'ArialMT'" font-size="10.1062">France</text>
<rect x="10.5" y="288.882" fill="#9F6AB7" stroke="#FFFFFF" width="56" height="31.237"/>
<title>Belarus: 1,949,400</title>
<text transform="matrix(1.0884 0 0 1 19.8516 308.0371)" font-family="'ArialMT'" font-size="10.1062">Belarus</text>
<rect x="69.5" y="10.5" fill="#7281CE" stroke="#FFFFFF" width="93" height="101.062"/>
<title>Mexico: 10,596,331</title>
<text transform="matrix(1.0884 0 0 1 98.5791 64.5679)" font-family="'ArialMT'" font-size="10.1062">Mexico</text>
<rect x="10.5" y="41.737" fill="#7281CE" stroke="#FFFFFF" width="59" height="69.825"/>
<title>Canada: 4,579,532</title>
<text transform="matrix(1.0884 0 0 1 20.7339 80.1865)" font-family="'ArialMT'" font-size="10.1062">Canada</text>
<rect x="162.5" y="10.5" fill="#7281CE" stroke="#FFFFFF" width="166" height="101.062"/>
<title>United States: 19,106,500</title>
<text transform="matrix(1.0884 0 0 1 212.4814 64.5679)" font-family="'ArialMT'" font-size="10.1062">United States</text>
<rect x="10.5" y="10.5" fill="#7281CE" stroke="#FFFFFF" width="59" height="31.237"/>
<title>Cuba: 2,117,625</title>
<text transform="matrix(1.0884 0 0 1 26.8516 29.6558)" font-family="'ArialMT'" font-size="10.1062">Cuba</text>
<rect x="174.5" y="120.75" fill="#82BC69" stroke="#FFFFFF" width="154" height="158.943"/>
<title>Brazil: 26,871,561</title>
<text transform="matrix(1.0884 0 0 1 237.7471 203.7588)" font-family="'ArialMT'" font-size="10.1062">Brazil</text>
<rect x="78.5" y="195.168" fill="#82BC69" stroke="#FFFFFF" width="96" height="84.525"/>
<title>Peru: 8,894,412</title>
<text transform="matrix(1.0884 0 0 1 114.8823 240.9683)" font-family="'ArialMT'" font-size="10.1062">Peru</text>
<rect x="78.5" y="120.75" fill="#82BC69" stroke="#FFFFFF" width="96" height="74.418"/>
<title>Colombia: 7,862,277</title>
<text transform="matrix(1.0884 0 0 1 103.2676 161.4961)" font-family="'ArialMT'" font-size="10.1062">Colombia</text>
<rect x="10.5" y="206.194" fill="#82BC69" stroke="#FFFFFF" width="68" height="73.5"/>
<title>Chile: 5,507,282</title>
<text transform="matrix(1.0884 0 0 1 31.9668 246.4805)" font-family="'ArialMT'" font-size="10.1062">Chile</text>
<rect x="10.5" y="162.094" fill="#82BC69" stroke="#FFFFFF" width="68" height="44.1"/>
<title>Venezuela: 3,289,886</title>
<text transform="matrix(1.0884 0 0 1 18.8101 187.6807)" font-family="'ArialMT'" font-size="10.1062">Venezuela</text>
<rect x="10.5" y="120.75" fill="#82BC69" stroke="#FFFFFF" width="68" height="41.344"/>
<title>Argentina: 3,054,267</title>
<text transform="matrix(1.0884 0 0 1 20.9556 144.959)" font-family="'ArialMT'" font-size="10.1062">Argentina</text>
<rect x="10.5" y="469.5" fill="#9F6AB7" stroke="#FFFFFF" width="16.352" height="16.352"/>
<rect x="37" y="472.5" fill="none" width="51.882" height="18"/>
<text transform="matrix(1 0 0 1 37 481.0195)" font-family="'MyriadPro-Regular'" font-size="12">Europa</text>
<rect x="143.309" y="469.5" fill="#82BC69" stroke="#FFFFFF" width="16.352" height="16.352"/>
<rect x="169.809" y="472.5" fill="none" width="60.691" height="18"/>
<text transform="matrix(1 0 0 1 169.8086 481.0195)" font-family="'MyriadPro-Regular'" font-size="12">Sudamerica</text>
<rect x="286.824" y="469.5" fill="#7281CE" stroke="#FFFFFF" width="16.352" height="16.352"/>
<rect x="313.324" y="472.5" fill="none" width="76.529" height="18"/>
<text transform="matrix(1 0 0 1 313.3242 481.0195)" font-family="'MyriadPro-Regular'" font-size="12">Norteamerica</text>
<rect x="429.5" y="469.5" fill="#DBAD65" stroke="#FFFFFF" width="16.352" height="16.352"/>
<rect x="456" y="472.5" fill="none" width="51.883" height="18"/>
<text transform="matrix(1 0 0 1 456 481.0195)" font-family="'MyriadPro-Regular'" font-size="12">Africa</text>
<rect x="573.809" y="469.5" fill="#CC6666" stroke="#FFFFFF" width="16.352" height="16.352"/>
<rect x="600.309" y="472.5" fill="none" width="51.883" height="18"/>
<text transform="matrix(1 0 0 1 600.3086 481.0195)" font-family="'MyriadPro-Regular'" font-size="12">Asia</text>
</svg>
